<?xml version="1.0" encoding="UTF-8"?>
<svg width="118px" height="30px" viewBox="0 0 118 30" version="1.1" xmlns="http://www.w3.org/2000/svg" xmlns:xlink="http://www.w3.org/1999/xlink">
    <title>logo-fixed-nav</title>
    <defs>
        <polygon id="path-1" points="0 0 7.90366281 0 7.90366281 15.8104643 0 15.8104643"></polygon>
        <polygon id="path-3" points="0 0 7.7719587 0 7.7719587 15.8106068 0 15.8106068"></polygon>
        <polygon id="path-5" points="0 0 7.7719587 0 7.7719587 15.8106068 0 15.8106068"></polygon>
        <polygon id="path-7" points="0 0 7.79433424 0 7.79433424 15.4572215 0 15.4572215"></polygon>
        <polygon id="path-9" points="0 0 6.56537911 0 6.56537911 5.90086412 0 5.90086412"></polygon>
        <polygon id="path-11" points="0 0 6.01307155 0 6.01307155 5.90043681 0 5.90043681"></polygon>
    </defs>
    <g id="Pages" stroke="none" stroke-width="1" fill="none" fill-rule="evenodd">
        <g id="3.-HBC---Content-1" transform="translate(-742, -26)">
            <g id="logo-fixed-nav" transform="translate(742, 26)">
                <polygon id="Fill-1" fill="#FEFEFE" points="5.45775893 0 5.45775893 6.25656622 2.54224107 6.25656622 2.54224107 0 0 0 0 15 2.54224107 15 2.54224107 8.48631463 5.45775893 8.48631463 5.45775893 15 8 15 8 0"></polygon>
                <g id="Group-48" transform="translate(12, 0)">
                    <g id="Group-4">
                        <mask id="mask-2" fill="white">
                            <use xlink:href="#path-1"></use>
                        </mask>
                        <g id="Clip-3"></g>
                        <path d="M3.95112332,13.5585414 C4.78524935,13.5585414 5.35596717,13.249454 5.35596717,12.1455702 L5.35596717,3.66631849 C5.35596717,2.56101035 4.78524935,2.25334726 3.95112332,2.25334726 C3.11699729,2.25334726 2.54627947,2.56101035 2.54627947,3.66631849 L2.54627947,12.1455702 C2.54627947,13.249454 3.11699729,13.5585414 3.95112332,13.5585414 M3.86332058,-0.00142436616 L4.03892606,-0.00142436616 C6.36711485,-0.00142436616 7.90366281,0.927262368 7.90366281,3.26749596 L7.90366281,12.5429684 C7.90366281,14.883202 6.36711485,15.8104643 4.03892606,15.8104643 L3.86332058,15.8104643 C1.53654796,15.8104643 0,14.883202 0,12.5429684 L0,3.26749596 C0,0.90447251 1.53654796,-0.00142436616 3.86332058,-0.00142436616" id="Fill-2" fill="#FEFEFE" mask="url(#mask-2)"></path>
                    </g>
                    <path d="M16.2658825,8.72210616 L14.7505772,8.72210616 L14.7505772,13.4253632 L16.2658825,13.4253632 C16.9909632,13.4253632 17.4512195,13.0507549 17.4512195,12.2331687 L17.4512195,9.91430064 C17.4512195,9.09813883 16.9909632,8.72210616 16.2658825,8.72210616 L16.2658825,8.72210616 Z M14.7505772,6.5570696 L16.1780798,6.5570696 C16.9031605,6.5570696 17.3634168,6.18388567 17.3634168,5.3662995 L17.3634168,3.5772956 C17.3634168,2.75970943 16.9031605,2.38510113 16.1780798,2.38510113 L14.7505772,2.38510113 L14.7505772,6.5570696 Z M18.1975428,7.5968569 C19.5372427,7.81620929 19.9989152,8.85457222 19.9989152,10.0481911 L19.9989152,12.5864115 C19.9989152,14.529247 18.5062686,15.6345551 16.1780798,15.6345551 L12.2042977,15.6345551 L12.2042977,0.177333587 L16.2219811,0.177333587 C18.5487538,0.177333587 19.9111124,1.27979299 19.9111124,3.2240528 L19.9111124,5.16688823 C19.9111124,6.27077201 19.4267812,7.44160099 18.1975428,7.5968569 L18.1975428,7.5968569 Z" id="Fill-5" fill="#FEFEFE"></path>
                    <path d="M28.5142232,10.0699839 L27.4393477,3.20169025 L26.363056,10.0699839 L28.5142232,10.0699839 Z M28.8441916,12.1894407 L26.0345039,12.1894407 L25.4850286,15.6335581 L23.0265519,15.6335581 L25.880141,0.177760896 L29.084941,0.177760896 L31.9838476,15.6335581 L29.3922506,15.6335581 L28.8441916,12.1894407 Z" id="Fill-7" fill="#FEFEFE"></path>
                    <g id="Group-11" transform="translate(35.2303, 0)">
                        <mask id="mask-4" fill="white">
                            <use xlink:href="#path-3"></use>
                        </mask>
                        <g id="Clip-10"></g>
                        <path d="M7.7719587,12.5431108 C7.7719587,14.9274998 6.23541074,15.8106068 3.90722195,15.8106068 L3.86332058,15.8106068 C1.53654796,15.8106068 0,14.9488653 0,12.5431108 L0,3.2676384 C0,0.971560156 1.53654796,-0.00128192954 3.86332058,-0.00128192954 L3.90722195,-0.00128192954 C6.23541074,-0.00128192954 7.7719587,0.971560156 7.7719587,3.2676384 L7.7719587,6.09500522 L5.22567923,6.09500522 L5.22567923,3.66646092 C5.22567923,2.58394265 4.69886279,2.25206533 3.88597935,2.25206533 C3.07451209,2.25206533 2.54769565,2.58394265 2.54769565,3.66646092 L2.54769565,12.1457127 C2.54769565,13.2268066 3.07451209,13.5586839 3.88597935,13.5586839 C4.69886279,13.5586839 5.22567923,13.2268066 5.22567923,12.1457127 L5.22567923,9.34113569 L7.7719587,9.34113569 L7.7719587,12.5431108 Z" id="Fill-9" fill="#FEFEFE" mask="url(#mask-4)"></path>
                    </g>
                    <polygon id="Fill-12" fill="#FEFEFE" points="53.0109045 15.6339854 50.9036388 8.92094768 49.7622031 11.1728706 49.7622031 15.6339854 47.2145075 15.6339854 47.2145075 0.17676384 49.7622031 0.17676384 49.7622031 7.13194379 52.6596936 0.17676384 55.3390933 0.17676384 52.3962854 5.98532903 55.6025015 15.6339854"></polygon>
                    <g id="Group-16" transform="translate(64.2488, 0)">
                        <mask id="mask-6" fill="white">
                            <use xlink:href="#path-5"></use>
                        </mask>
                        <g id="Clip-15"></g>
                        <path d="M7.7719587,12.5431108 C7.7719587,14.9274998 6.23541074,15.8106068 3.90722195,15.8106068 L3.86473675,15.8106068 C1.53654796,15.8106068 0,14.9488653 0,12.5431108 L0,3.2676384 C0,0.971560156 1.53654796,-0.00128192954 3.86473675,-0.00128192954 L3.90722195,-0.00128192954 C6.23541074,-0.00128192954 7.7719587,0.971560156 7.7719587,3.2676384 L7.7719587,6.09500522 L5.22567923,6.09500522 L5.22567923,3.66646092 C5.22567923,2.58394265 4.69886279,2.25206533 3.88597935,2.25206533 C3.07309592,2.25206533 2.54627947,2.58394265 2.54627947,3.66646092 L2.54627947,12.1457127 C2.54627947,13.2268066 3.07309592,13.5586839 3.88597935,13.5586839 C4.69886279,13.5586839 5.22567923,13.2268066 5.22567923,12.1457127 L5.22567923,9.34113569 L7.7719587,9.34113569 L7.7719587,12.5431108 Z" id="Fill-14" fill="#FEFEFE" mask="url(#mask-6)"></path>
                    </g>
                    <polygon id="Fill-17" fill="#FEFEFE" points="82.7104647 15.6339854 76.2343045 15.6339854 76.2343045 0.17676384 78.780584 0.17676384 78.780584 13.3379071 82.7104647 13.3379071"></polygon>
                    <path d="M93.8614128,12.5431108 C93.8614128,14.9274998 92.3687662,15.8106068 90.0419935,15.8106068 L89.9527746,15.8106068 C87.626002,15.8106068 86.1333554,14.9488653 86.1333554,12.5431108 L86.1333554,0.17676384 L88.6796349,0.17676384 L88.6796349,12.1457127 C88.6796349,13.2495964 89.1639661,13.5586839 89.996676,13.5586839 C90.830802,13.5586839 91.3151333,13.2495964 91.3151333,12.1457127 L91.3151333,0.17676384 L93.8614128,0.17676384 L93.8614128,12.5431108 Z" id="Fill-19" fill="#FEFEFE"></path>
                    <g id="Group-23" transform="translate(98.2057, 0.1773)">
                        <mask id="mask-8" fill="white">
                            <use xlink:href="#path-7"></use>
                        </mask>
                        <g id="Clip-22"></g>
                        <path d="M4.06158483,8.54477258 L2.54769565,8.54477258 L2.54769565,13.2480296 L4.06158483,13.2480296 C4.78666553,13.2480296 5.24692183,12.8734213 5.24692183,12.0558352 L5.24692183,9.73696705 C5.24692183,8.92080524 4.78666553,8.54477258 4.06158483,8.54477258 L4.06158483,8.54477258 Z M2.54769565,6.37973602 L3.97378209,6.37973602 C4.69886279,6.37973602 5.15911909,6.00655208 5.15911909,5.18896591 L5.15911909,3.39996202 C5.15911909,2.58237584 4.69886279,2.20776754 3.97378209,2.20776754 L2.54769565,2.20776754 L2.54769565,6.37973602 Z M5.99324512,7.41952331 C7.332945,7.6388757 7.79461747,8.67723863 7.79461747,9.87085747 L7.79461747,12.409078 C7.79461747,14.3519134 6.30197089,15.4572215 3.97378209,15.4572215 L0,15.4572215 L0,0 L4.01768346,0 C6.34445608,0 7.70681473,1.10245941 7.70681473,3.04671921 L7.70681473,4.98955465 C7.70681473,6.09343842 7.22248349,7.2642674 5.99324512,7.41952331 L5.99324512,7.41952331 Z" id="Fill-21" fill="#FEFEFE" mask="url(#mask-8)"></path>
                    </g>
                    <path d="M3.82720816,24.2566708 L5.33684883,24.2566708 L5.33684883,27.6680277 C5.33684883,28.6294749 5.29011511,29.9997151 3.09646277,29.9997151 C1.80491279,29.9997151 0.608246403,29.6635647 0.608246403,28.0753964 L0.608246403,27.723578 L2.1164709,27.723578 L2.1164709,28.1138543 C2.1164709,28.6380211 2.42802901,28.9812933 2.93218668,28.9812933 C3.719579,28.9812933 3.82720816,28.5126769 3.82720816,27.8546197 L3.82720816,24.2566708 Z" id="Fill-24" fill="#89D6F7"></path>
                    <path d="M10.6744057,25.4612572 L9.8034592,27.6761466 L11.5453523,27.6761466 L10.6744057,25.4612572 Z M11.9489617,28.6931441 L9.39843366,28.6931441 L8.9466744,29.8426075 L7.32090753,29.8426075 L9.76380635,24.2562435 L11.5850051,24.2562435 L14.0264878,29.8426075 L12.4007209,29.8426075 L11.9489617,28.6931441 Z" id="Fill-26" fill="#89D6F7"></path>
                    <g id="Group-30" transform="translate(15.7797, 24.0991)">
                        <mask id="mask-10" fill="white">
                            <use xlink:href="#path-9"></use>
                        </mask>
                        <g id="Clip-29"></g>
                        <path d="M4.92403433,2.27043965 C4.78383318,1.46424841 4.12389645,1.06400152 3.33792031,1.06400152 C1.90616917,1.06400152 1.60169193,2.19067515 1.60169193,2.95128668 C1.60169193,3.71047384 1.90616917,4.83714747 3.33792031,4.83714747 C4.0686657,4.83714747 4.77675231,4.48532903 4.92403433,3.60079765 L6.56537911,3.60079765 C6.37844424,5.2274238 5.04865757,5.90114899 3.28410573,5.90114899 C1.26039418,5.90114899 0,5.0251638 0,2.95128668 C0,0.875985187 1.26039418,0 3.28410573,0 C4.62097326,0 6.32462966,0.34469661 6.5498012,2.27043965 L4.92403433,2.27043965 Z" id="Fill-28" fill="#89D6F7" mask="url(#mask-10)"></path>
                    </g>
                    <polygon id="Fill-31" fill="#89D6F7" points="28.7265076 24.2566708 30.7573 24.2566708 28.2053558 26.5014718 30.9513157 29.8430348 28.9134424 29.8430348 27.0228512 27.4258855 26.1448238 28.1850726 26.1448238 29.8430348 24.6337669 29.8430348 24.6337669 24.2566708 26.1448238 24.2566708 26.1448238 26.6595765"></polygon>
                    <g id="Group-35" transform="translate(32.6046, 24.0996)">
                        <mask id="mask-12" fill="white">
                            <use xlink:href="#path-11"></use>
                        </mask>
                        <g id="Clip-34"></g>
                        <path d="M4.12248028,1.7761846 C4.03042902,1.04833349 3.33650414,0.971417719 2.73179817,0.971417719 C2.10868194,0.971417719 1.7036564,1.25201785 1.7036564,1.62805052 C1.7036564,1.92431868 1.95290289,2.08954515 2.34093435,2.15221726 L4.23152562,2.45845599 C5.24267331,2.6222581 6.01307155,3.00398823 6.01307155,4.02241003 C6.01307155,5.06362169 5.31348197,5.90114899 3.1269105,5.90114899 C1.77446506,5.90114899 0.0155779056,5.72737632 0,3.98395214 L1.69515936,3.98395214 C1.71215344,4.75026113 2.47405464,4.88272719 3.1269105,4.88272719 C3.83499711,4.88272719 4.31791219,4.671921 4.31791219,4.18621214 C4.31791219,3.75605356 3.97519826,3.63925553 3.37615699,3.54524736 L1.9996366,3.33444117 C1.03380646,3.18488273 0.1005483,2.8957364 0.1005483,1.75197037 C0.1005483,0.508498718 1.11311216,0 2.85500524,0 C3.99785704,0 5.69443257,0.19656253 5.79639704,1.7761846 L4.12248028,1.7761846 Z" id="Fill-33" fill="#89D6F7" mask="url(#mask-12)"></path>
                    </g>
                    <path d="M44.0180629,28.935856 C45.3875024,28.935856 45.8704175,27.9174342 45.8704175,27.0499953 C45.8704175,26.1811319 45.3875024,25.1641345 44.0180629,25.1641345 C42.6486234,25.1641345 42.1657083,26.1811319 42.1657083,27.0499953 C42.1657083,27.9174342 42.6486234,28.935856 44.0180629,28.935856 M44.0180629,24.0987086 C47.0047722,24.0987086 47.4721094,25.8834394 47.4721094,27.0499953 C47.4721094,28.2151268 47.0047722,29.9998576 44.0180629,29.9998576 C41.0313535,29.9998576 40.5640164,28.2151268 40.5640164,27.0499953 C40.5640164,25.8834394 41.0313535,24.0987086 44.0180629,24.0987086" id="Fill-36" fill="#89D6F7"></path>
                    <polygon id="Fill-38" fill="#89D6F7" points="54.4692797 24.2566708 55.9307705 24.2566708 55.9307705 29.8430348 54.2894257 29.8430348 51.2630635 25.9473934 51.2489018 25.9473934 51.2489018 29.8430348 49.7845787 29.8430348 49.7845787 24.2566708 51.536385 24.2566708 54.4537018 28.1523122 54.4692797 28.1523122"></polygon>
                    <polygon id="Fill-40" fill="#89D6F7" points="62.9953507 24.2566708 64.5049913 24.2566708 64.5049913 26.3533378 67.6319018 26.3533378 67.6319018 24.2566708 69.1415425 24.2566708 69.1415425 29.8430348 67.6319018 29.8430348 67.6319018 27.4173393 64.5049913 27.4173393 64.5049913 29.8430348 62.9953507 29.8430348"></polygon>
                    <path d="M74.9083415,28.935856 C76.277781,28.935856 76.7606961,27.9174342 76.7606961,27.0499953 C76.7606961,26.1811319 76.277781,25.1641345 74.9083415,25.1641345 C73.538902,25.1641345 73.0559869,26.1811319 73.0559869,27.0499953 C73.0559869,27.9174342 73.538902,28.935856 74.9083415,28.935856 M74.9083415,24.0987086 C77.8950509,24.0987086 78.362388,25.8834394 78.362388,27.0499953 C78.362388,28.2151268 77.8950509,29.9998576 74.9083415,29.9998576 C71.9216322,29.9998576 71.454295,28.2151268 71.454295,27.0499953 C71.454295,25.8834394 71.9216322,24.0987086 74.9083415,24.0987086" id="Fill-42" fill="#89D6F7"></path>
                    <polygon id="Fill-44" fill="#89D6F7" points="80.6754238 24.2566708 82.1850644 24.2566708 82.1850644 28.7320292 85.5697185 28.7320292 85.5697185 29.8430348 80.6754238 29.8430348"></polygon>
                    <polygon id="Fill-46" fill="#89D6F7" points="87.8586793 24.2566708 93.0461218 24.2566708 93.0461218 25.3206723 89.3669038 25.3206723 89.3669038 26.478682 92.859187 26.478682 92.859187 27.4956794 89.3669038 27.4956794 89.3669038 28.7790333 93.0786938 28.7790333 93.0786938 29.8430348 87.8586793 29.8430348"></polygon>
                </g>
            </g>
        </g>
    </g>
</svg>