<?xml version="1.0" encoding="UTF-8"?>
<svg width="127px" height="143px" viewBox="0 0 127 143" version="1.1" xmlns="http://www.w3.org/2000/svg" xmlns:xlink="http://www.w3.org/1999/xlink">
    <title>logo-footer</title>
    <defs>
        <polygon id="path-1" points="0 0 126.999883 0 126.999883 143 0 143"></polygon>
        <polygon id="path-3" points="0 0 127 0 127 143 0 143"></polygon>
        <path d="M59.5029995,0.273907202 L58.1688621,0.273907202 L56.9392477,1.30017753 L56.0149817,2.84017082 C56.0149817,2.84017082 54.7830186,4.4847896 54.2709729,4.58706396 L54.2709729,4.58706396 C53.7577527,4.68933832 52.0137439,6.94877885 52.0137439,6.94877885 L52.0137439,6.94877885 L49.9620378,8.59104649 C49.9620378,8.59104649 48.6290748,9.61731683 48.3202031,9.82421669 L48.3202031,9.82421669 C48.012506,10.0287654 47.1927631,10.5424884 46.8850659,10.6388849 L46.8850659,10.6388849 C46.5773687,10.7352814 46.0629741,10.6388849 46.0629741,10.6388849 L46.0629741,10.6388849 C46.0629741,10.6388849 45.5509284,10.7482127 45.141057,10.6447627 L45.141057,10.6447627 C44.7300111,10.5424884 44.6266624,11.6722086 44.3189652,11.9802073 L44.3189652,11.9802073 C44.0112681,12.2882059 43.1903507,12.9042033 43.1903507,12.9042033 L43.1903507,12.9042033 C43.1903507,12.9042033 42.5749564,13.9316492 42.1650849,14.0339235 L42.1650849,14.0339235 C41.754039,14.1373734 40.421076,15.4716424 40.421076,15.4716424 L40.421076,15.4716424 C40.421076,15.4716424 39.8045072,15.883091 39.1902873,16.0888153 L39.1902873,16.0888153 C38.5737185,16.293364 38.163847,17.4242599 38.163847,17.4242599 L38.163847,17.4242599 L36.9330582,18.5528046 L35.7022695,20.1962478 L35.7022695,21.325968 L34.9835264,22.1535675 L33.9582606,23.17396 L33.1361689,24.4071302 L32.110903,25.7402236 L31.39216,25.9459479 L30.5630217,26.8711194 L29.6481511,28.1031141 L28.6228853,28.5133871 L28.0074909,28.0008397 L26.982225,26.6653951 C26.982225,26.6653951 26.982225,25.8436735 26.9810506,25.8436735 L26.9810506,25.8436735 C25.9064593,25.5509572 25.8489129,26.3115493 25.3403904,27.0756682 L25.3403904,27.0756682 C25.1348675,27.3836668 24.6956356,27.692841 24.6956356,27.692841 L24.6956356,27.692841 C24.6956356,27.692841 24.3139502,28.2053884 24.006253,28.7191114 L24.006253,28.7191114 C23.6985558,29.2316587 23.2558007,30.3625546 23.2558007,30.3625546 L23.2558007,30.3625546 C23.2558007,30.3625546 22.3655928,31.3900005 22.2622441,31.6968236 L22.2622441,31.6968236 C22.1600698,32.0048222 21.6468497,32.2105465 20.4160609,32.3128209 L20.4160609,32.3128209 L19.0819235,31.6968236 L17.953309,31.9025479 L17.4400889,31.0820018 L16.6191716,30.0545559 L15.4917315,29.13056 L14.9773369,28.2053884 L14.157594,26.5631208 L13.5410252,25.4334005 L12.6191081,24.5094045 L11.3871449,24.3036802 L10.567402,24.3036802 L9.02774163,23.6876829 L9.02774163,23.0716856 C9.02774163,23.0716856 8.10465006,22.5567871 7.79695286,22.266422 L7.79695286,22.266422 C7.61374385,22.092438 7.28490716,22.1559186 6.98543088,22.2193993 L6.98543088,22.2193993 C6.77990795,22.2617197 6.5873036,22.3052157 6.46281543,22.2722998 L6.46281543,22.2722998 C6.15511824,22.1923612 5.23202666,22.8659613 5.23202666,22.8659613 L5.23202666,22.8659613 L4.92432947,22.4545127 C4.61663228,22.0442397 4.20676083,22.4545127 4.20676083,22.4545127 L4.20676083,22.4545127 L3.59019203,23.17396 C3.59019203,23.17396 2.76927472,23.0716856 2.46275194,23.17396 L2.46275194,23.17396 C2.15505475,23.2762343 1.84618315,23.994506 1.84618315,23.994506 L1.84618315,23.994506 L1.33296302,25.4334005 L0.820917315,26.1528478 C0.820917315,26.1528478 0.556673544,26.2433664 0.240755436,26.3456408 L0.240755436,26.3456408 C0.119790509,26.3844345 0.224313601,26.3844345 0,26.4114726 L0,26.4114726 L0,32.9770165 L0,48.4874526 L0.347627361,48.3816516 L0.874940486,47.4529533 L1.71934614,46.9580394 L2.24665926,46.5877357 L3.19676242,45.8447771 C3.19676242,45.8447771 4.54029519,45.1182765 4.56730678,45.1029941 L4.56730678,45.1029941 C5.60314236,44.543424 6.80926837,44.4881724 7.85449929,43.9732738 L7.85449929,43.9732738 C9.07236947,43.3725589 9.47871766,42.6107912 10.9009364,42.4438607 L10.9009364,42.4438607 C11.4282495,42.3827312 12.2726551,42.7330502 12.2726551,42.7330502 L12.2726551,42.7330502 L13.9614664,42.7330502 L15.1217902,42.3192505 L15.1217902,41.5786431 L16.493509,40.8356845 L16.493509,40.2784655 L17.7607047,39.3509429 L18.1823203,38.9183341 C18.6051103,38.4857253 19.8711316,38.6091598 19.8711316,38.6091598 L19.8711316,38.6091598 L20.8212347,38.9806391 L21.6656404,38.7325944 L21.6656404,37.9285063 C21.6656404,37.9285063 22.0884304,37.6205077 22.9316616,37.3724629 L22.9316616,37.3724629 C23.7760673,37.1244182 22.9316616,37.3724629 23.8817648,37.1244182 L23.8817648,37.1244182 C24.831868,36.8775491 24.6204729,36.9398541 25.1477861,36.7541145 L25.1477861,36.7541145 C25.6750992,36.5683748 25.9921917,36.8775491 25.9921917,36.8775491 L25.9921917,36.8775491 L26.8365974,37.3724629 L27.5764799,37.7427667 L28.5254087,38.4234202 L29.1584193,38.7948995 L30.21422,38.9806391 C30.21422,38.9806391 31.7315664,39.5143467 31.7949849,39.5366825 L31.7949849,39.5366825 C33.7374702,40.2196872 34.9741311,41.8607792 37.0739883,42.1958159 L37.0739883,42.1958159 L37.8126964,42.1346864 L38.262498,41.8243366 C38.7228694,41.5739408 39.9524837,41.1836524 40.11103,40.6628761 L40.11103,40.6628761 C40.1345183,40.5852886 40.1415648,40.5029989 40.181495,40.4336404 L40.181495,40.4336404 C40.3541343,40.1326952 41.1022377,39.9316731 41.401714,39.7847272 L41.401714,39.7847272 L42.5620378,38.7948995 L43.5121409,37.8662012 L43.9173147,37.2878221 L44.2496747,36.8164196 L45.0940803,35.8254162 L45.938486,35.0213282 L47.5215997,34.4652848 L47.5215997,33.7846313 L48.3671798,32.6090639 L49.4218061,31.5592822 C49.4218061,31.5592822 50.0548167,30.9397582 50.3719092,30.8163236 L50.3719092,30.8163236 C50.6878273,30.6917134 51.532233,30.5682789 51.532233,30.5682789 L51.532233,30.5682789 C51.532233,30.5682789 52.2709411,30.0745406 52.4823361,29.7030613 L52.4823361,29.7030613 C52.6925567,29.331582 53.4312649,29.7030613 53.4312649,29.7030613 L53.4312649,29.7030613 L54.8041581,29.7030613 L56.0701793,30.3214097 L57.0202825,31.2489324 C57.0202825,31.2489324 58.2769084,32.2305312 58.8077448,32.2998896 L58.8077448,32.2998896 C60.9522298,32.5773235 62.9099825,34.6627801 64.9358515,35.453937 L64.9358515,35.453937 C65.2517696,35.5785471 66.0961752,35.8877213 66.4132677,35.9453241 L66.4132677,35.9453241 C66.7291858,36.0029269 67.2576734,35.9453241 67.2576734,35.9453241 L67.2576734,35.9453241 C67.2576734,35.9453241 67.7849865,36.0123315 68.2066021,35.9500264 L68.2066021,35.9500264 C68.6293922,35.8877213 68.7350897,36.5683748 69.0510078,36.7541145 L69.0510078,36.7541145 C69.3681003,36.9398541 70.212506,37.3101579 70.212506,37.3101579 L70.212506,37.3101579 C70.212506,37.3101579 70.8455166,37.9285063 71.2683066,37.9908114 L71.2683066,37.9908114 C71.6899222,38.0531165 73.061641,38.8572045 73.061641,38.8572045 L73.061641,38.8572045 C73.061641,38.8572045 73.6946516,39.1040737 74.3276623,39.2275083 L74.3276623,39.2275083 C74.9606729,39.3509429 75.3834629,40.0315964 75.3834629,40.0315964 L75.3834629,40.0315964 L76.1691478,40.4536251 L76.6506586,40.7110743 L77.9166799,41.7020776 L77.9166799,42.3827312 L78.655388,42.8799962 L79.7100143,43.4948179 L80.5544199,44.2366009 L81.6102206,45.040689 L82.3489287,45.1652992 L83.2027297,45.7213425 L84.1434375,46.4643011 L85.1992382,46.7111703 C85.1992382,46.7111703 85.8216791,46.4066983 85.8322488,46.4019961 L85.8322488,46.4019961 C86.3760038,46.1351423 86.6672592,45.494458 87.1840025,45.1864594 L87.1840025,45.1864594 C87.9732106,44.7150569 88.1305824,45.2452378 88.6578956,45.8118612 L88.6578956,45.8118612 C89.9849865,47.2448779 91.5692747,48.8989012 93.6421203,49 L93.6421203,49 L95.0138391,48.6285207 L96.1741628,48.7531308 L96.7026504,48.2570414 L97.547056,47.638693 L98.7073798,47.081474 L99.2346929,46.5254306 L100.079099,45.5356029 L100.713284,44.8561249 L101.662212,44.298906 L102.928234,44.1754714 L103.773814,44.1754714 L105.356927,43.8039921 L105.356927,43.4325128 C105.356927,43.4325128 105.467323,43.3972458 105.621171,43.3443453 L105.621171,43.3443453 C105.925345,43.2397198 106.411554,43.0657358 106.622949,42.9481791 L106.622949,42.9481791 C106.809681,42.8447291 107.146739,42.8823473 107.456785,42.921141 L107.456785,42.921141 C107.667005,42.9458279 107.865482,42.972866 107.994668,42.9528813 L107.994668,42.9528813 C108.310586,42.9035075 109.260689,43.3102538 109.260689,43.3102538 L109.260689,43.3102538 L109.577781,43.0622091 C109.893699,42.81534 110.316489,43.0622091 110.316489,43.0622091 L110.316489,43.0622091 L111,43.5289094 L110.996477,31.1407802 L110.593652,29.7465573 L109.773909,28.9248357 L109.259514,28.3088383 L108.337597,27.0756682 L107.00346,25.8436735 C107.00346,25.8436735 105.567148,24.9196776 104.746231,24.8174032 L104.746231,24.8174032 C103.925313,24.7139533 103.207745,23.584233 103.207745,23.584233 L103.207745,23.584233 L102.386827,21.9078739 C102.386827,21.9078739 101.361562,21.5305168 100.847167,21.4282424 L100.847167,21.4282424 C100.335121,21.325968 99.5142041,21.9078739 99.5142041,21.9078739 L99.5142041,21.9078739 L97.8723695,21.9078739 L96.7449294,21.2225181 L96.7449294,19.9905235 L95.4107919,18.7573533 L95.4107919,17.8345329 L94.1788288,16.293364 L93.7689573,15.5739168 C93.3590859,14.8556451 92.1271227,15.0613694 92.1271227,15.0613694 L92.1271227,15.0613694 L91.2052055,15.6773667 L90.3831138,15.2659181 L90.3831138,13.9316492 C90.3831138,13.9316492 89.9732423,13.4179262 89.152325,13.0076532 L89.152325,13.0076532 C88.3314077,12.5973802 89.152325,13.0076532 88.2292335,12.5973802 L88.2292335,12.5973802 C87.3061419,12.1859316 87.5104904,12.2882059 86.9984447,11.9802073 L86.9984447,11.9802073 C86.4852246,11.6722086 86.1775274,12.1859316 86.1775274,12.1859316 L86.1775274,12.1859316 L85.3566101,13.0076532 L84.637867,13.6236505 L83.7147754,14.7533708 L83.0993811,15.3693681 L82.0741152,15.6773667 L80.5344548,16.6013627 L79.4058403,17.5253587 L78.6084114,18.8608032 L77.4563085,19.7847992 L76.5343914,20.7087952 L75.4046024,21.0179694 L74.6870338,20.9145195 L74.2489764,20.4007965 L73.1485478,19.3745262 L72.5073163,18.8608032 L72.413363,18.0390816 L71.1978416,17.0116357 L70.0704015,15.3693681 L69.14731,13.8281992 L68.4285669,12.0824816 L67.6076496,10.440214 L66.7879067,9.10476944 L65.2482463,8.18077348 L65.2482463,7.05105321 L64.427329,5.09961134 L63.4020632,3.35389377 C63.4020632,3.35389377 62.7854944,2.32644787 62.4777972,2.12189914 L62.4777972,2.12189914 C62.1712744,1.91617485 61.3491827,1.71162612 61.3491827,1.71162612 L61.3491827,1.71162612 C61.3491827,1.71162612 60.631614,0.888728948 60.4272655,0.273907202 L60.4272655,0.273907202 C60.3579749,0.0681829087 60.2323123,0 60.09608,0 L60.09608,0 C59.8224409,0 59.5029995,0.273907202 59.5029995,0.273907202" id="path-5"></path>
        <linearGradient x1="49.9997866%" y1="-0.000768917039%" x2="49.9997866%" y2="99.9992659%" id="linearGradient-7">
            <stop stop-color="#89D6F7" offset="0%"></stop>
            <stop stop-color="#115879" offset="100%"></stop>
        </linearGradient>
    </defs>
    <g id="Symbols" stroke="none" stroke-width="1" fill="none" fill-rule="evenodd">
        <g id="logo-footer">
            <g id="Group-9">
                <g id="Group-3" transform="translate(0.0001, 0)">
                    <mask id="mask-2" fill="white">
                        <use xlink:href="#path-1"></use>
                    </mask>
                    <g id="Clip-2"></g>
                    <path d="M63.4988308,143 C61.8654391,143 60.2320475,142.644675 58.9880041,141.935182 L4.51082674,110.800828 C2.02273983,109.379528 0,105.908452 0,103.064694 L0,39.9383446 C0,37.0934286 2.02273983,33.6235107 4.51082674,32.20221 L58.9880041,1.06554147 C61.4749217,-0.354601726 65.5227398,-0.355759137 68.0096575,1.06554147 L122.488004,32.1998952 C124.976091,33.6223532 127,37.0922712 127,39.9348724 L127,103.064694 C127,105.908452 124.976091,109.37837 122.489173,110.800828 L68.0096575,141.935182 C66.7667833,142.644675 65.1322224,143 63.4988308,143" id="Fill-1" fill="#FEFEFE" mask="url(#mask-2)"></path>
                </g>
                <g id="Group-6">
                    <mask id="mask-4" fill="white">
                        <use xlink:href="#path-3"></use>
                    </mask>
                    <g id="Clip-5"></g>
                    <path d="M63.4995323,1.38382948 C62.1105064,1.38382948 60.7226496,1.67781185 59.6890646,2.26809142 L5.21188731,33.4059174 C3.14705579,34.5853191 1.40375806,37.5772264 1.40375806,39.9383446 L1.40375806,103.064694 C1.40375806,105.425812 3.14705579,108.417719 5.21188731,109.598278 L59.6890646,140.731475 C61.7550654,141.910876 65.2439993,141.910876 67.3088308,140.731475 L121.787177,109.598278 C123.852009,108.417719 125.596476,105.425812 125.596476,103.064694 L125.596476,39.9348724 C125.596476,37.5749115 123.852009,34.5841617 121.787177,33.4024452 L67.3088308,2.26809142 C66.276415,1.67896926 64.8873891,1.38382948 63.4995323,1.38382948 M63.4995323,143 C61.8661407,143 60.2315798,142.644675 58.9887056,141.935182 L4.51035905,110.800828 C2.02344136,109.379528 -0.000467685511,105.908452 -0.000467685511,103.064694 L-0.000467685511,39.9383446 C-0.000467685511,37.0934286 2.02344136,33.6235107 4.51035905,32.20221 L58.9887056,1.06554147 C61.4744541,-0.354601726 65.5222721,-0.355759137 68.010359,1.06554147 L122.488706,32.1998952 C124.976792,33.6223532 127.000702,37.0922712 127.000702,39.9348724 L127.000702,103.064694 C127.000702,105.908452 124.976792,109.37837 122.488706,110.800828 L68.010359,141.935182 C66.7663156,142.644675 65.132924,143 63.4995323,143" id="Fill-4" fill="#1E2C39" mask="url(#mask-4)"></path>
                </g>
                <path d="M118.741843,39.4121856 L63.5058461,7.83917314 L8.25815688,39.4121856 L8.25698766,47.9261004 C8.47913828,47.8983225 8.37624747,47.8994799 8.49433806,47.8612853 C8.81002578,47.7594332 9.07192966,47.6703125 9.07192966,47.6703125 L9.58287608,46.9619771 L10.0938225,45.5464635 C10.0938225,45.5464635 10.4001565,44.8392854 10.7064905,44.7385907 C11.0128245,44.6367385 11.830105,44.7385907 11.830105,44.7385907 L12.442773,44.0302552 C12.442773,44.0302552 12.8519978,43.6263188 13.1583318,44.0302552 L13.4646658,44.4341916 C13.4646658,44.4341916 14.3836678,43.7721526 14.6900018,43.8508565 C14.9963358,43.9295604 15.7118947,43.5568741 16.0182287,43.843912 C16.3245627,44.1309499 17.2435647,44.6367385 17.2435647,44.6367385 L17.2435647,45.2432218 L18.7752348,45.8508626 L19.5925152,45.8508626 L20.8190204,46.0522521 L21.7380225,46.9619771 L22.3506905,48.074249 L23.1679709,49.6923094 L23.6777481,50.6020344 L24.8013625,51.5117594 L25.618643,52.5233365 L26.1295894,53.3323668 L27.2532038,53.1298199 L28.5814307,53.7363032 C29.8067667,53.6356084 30.3177131,53.4330615 30.4194347,53.1298199 C30.5211563,52.8265782 31.4085896,51.815001 31.4085896,51.815001 C31.4085896,51.815001 31.8493832,50.7027292 32.1557172,50.198098 C32.4620512,49.6923094 32.8420457,49.1865208 32.8420457,49.1865208 C32.8420457,49.1865208 33.2793316,48.8832792 33.483944,48.5800375 C33.9902136,47.8277204 34.0475051,47.0788756 35.1173357,47.3670709 C35.1173357,47.3670709 35.1173357,48.1761011 35.1173357,48.1761011 L36.1392285,49.4897625 L36.7518965,49.9955511 L37.7737894,49.5916147 L38.6834377,48.378648 L39.5100718,47.4677656 L40.2244614,47.2652187 L41.2463543,45.9515573 L42.0636347,44.7385907 L43.0843583,43.733958 L43.7999171,42.9179833 L43.7999171,41.8057114 L45.0252532,40.1888084 L46.2505892,39.0765365 C46.2505892,39.0765365 46.6586448,37.9642646 47.272482,37.7617177 C47.8851501,37.5591707 48.4978181,37.1552343 48.4978181,37.1552343 C48.4978181,37.1552343 49.8248757,35.8404155 50.2341005,35.7397208 C50.6421561,35.639026 51.2559934,34.6274489 51.2559934,34.6274489 C51.2559934,34.6274489 52.0721046,34.0209656 52.3796078,33.7177239 C52.6859418,33.4144822 52.7876634,32.3022103 53.195719,32.4029051 C53.6049438,32.5035998 54.1158903,32.397118 54.1158903,32.397118 C54.1158903,32.397118 54.6256675,32.4908683 54.9320015,32.397118 C55.2383355,32.3022103 56.0556159,31.7964218 56.3619499,31.5938749 C56.6682839,31.391328 57.9965108,30.3809082 57.9965108,30.3809082 L60.0391272,28.7628478 C60.0391272,28.7628478 61.7754097,26.5394614 62.2863561,26.4376092 C62.7973025,26.3369145 64.0226386,24.718854 64.0226386,24.718854 L64.9416406,23.2026457 L66.1681458,22.1910685 L67.4952035,22.1910685 C67.4952035,22.1910685 68.2107623,21.5845852 68.4142055,22.1910685 C68.6188179,22.7975519 69.3343767,23.6065821 69.3343767,23.6065821 C69.3343767,23.6065821 70.1504879,23.809129 70.4568219,24.0116759 C70.763156,24.2130654 71.3769932,25.2246426 71.3769932,25.2246426 L72.3977168,26.9433978 L73.2149972,28.8646999 L73.2149972,29.9758144 L74.7466673,30.8866968 L75.5639477,32.2015156 L76.3812281,33.8184187 L77.0956177,35.5371739 L78.015789,37.0533822 L79.1394034,38.6714426 L80.3495397,39.6830198 L80.4419076,40.4908926 L81.0802983,40.9966812 L82.1758516,42.0082583 L82.6119683,42.5140469 L83.3263579,42.6147416 L84.4499724,42.3115 L85.3689744,41.401775 L86.5171423,40.4908926 L87.3098693,39.1772312 L88.4334837,38.2675062 L89.966323,37.3577812 L90.9870466,37.0533822 L91.5997146,36.4468988 L92.5187166,35.3357844 L93.2342755,34.7281436 L94.0515559,33.9191134 C94.0515559,33.9191134 94.3578899,33.4144822 94.8688363,33.7177239 C95.3786135,34.0209656 95.1751703,33.9191134 96.0941723,34.3242072 C97.0131744,34.7281436 96.1958939,34.3242072 97.0131744,34.7281436 C97.8304548,35.1332375 98.2385104,35.639026 98.2385104,35.639026 L98.2385104,36.9526874 L99.0557908,37.3577812 L99.9747929,36.7512979 C99.9747929,36.7512979 101.201298,36.548751 101.609354,37.2559291 L102.017409,37.9642646 L103.243915,39.4804729 L103.243915,40.3901979 L104.570972,41.6043219 L104.570972,42.8172886 L105.694587,43.4909017 L107.329147,43.4909017 C107.329147,43.4909017 108.146428,42.9179833 108.657374,43.0198355 C109.167152,43.1205302 110.189044,43.4909017 110.189044,43.4909017 L111.006325,45.1425271 C111.006325,45.1425271 111.720714,46.254799 112.537995,46.3554937 C113.355275,46.4573459 114.785224,47.3670709 114.785224,47.3670709 L116.113451,48.5800375 L117.032453,49.7930042 L117.543399,50.3994875 L118.35951,51.2085177 L118.760551,52.5823645 L118.741843,39.4121856 Z" id="Fill-7" fill="#FEFEFE"></path>
            </g>
            <g id="Group-12" transform="translate(8, 22)">
                <mask id="mask-6" fill="white">
                    <use xlink:href="#path-5"></use>
                </mask>
                <g id="Clip-11"></g>
                <path d="M59.5029995,0.273907202 L58.1688621,0.273907202 L56.9392477,1.30017753 L56.0149817,2.84017082 C56.0149817,2.84017082 54.7830186,4.4847896 54.2709729,4.58706396 L54.2709729,4.58706396 C53.7577527,4.68933832 52.0137439,6.94877885 52.0137439,6.94877885 L52.0137439,6.94877885 L49.9620378,8.59104649 C49.9620378,8.59104649 48.6290748,9.61731683 48.3202031,9.82421669 L48.3202031,9.82421669 C48.012506,10.0287654 47.1927631,10.5424884 46.8850659,10.6388849 L46.8850659,10.6388849 C46.5773687,10.7352814 46.0629741,10.6388849 46.0629741,10.6388849 L46.0629741,10.6388849 C46.0629741,10.6388849 45.5509284,10.7482127 45.141057,10.6447627 L45.141057,10.6447627 C44.7300111,10.5424884 44.6266624,11.6722086 44.3189652,11.9802073 L44.3189652,11.9802073 C44.0112681,12.2882059 43.1903507,12.9042033 43.1903507,12.9042033 L43.1903507,12.9042033 C43.1903507,12.9042033 42.5749564,13.9316492 42.1650849,14.0339235 L42.1650849,14.0339235 C41.754039,14.1373734 40.421076,15.4716424 40.421076,15.4716424 L40.421076,15.4716424 C40.421076,15.4716424 39.8045072,15.883091 39.1902873,16.0888153 L39.1902873,16.0888153 C38.5737185,16.293364 38.163847,17.4242599 38.163847,17.4242599 L38.163847,17.4242599 L36.9330582,18.5528046 L35.7022695,20.1962478 L35.7022695,21.325968 L34.9835264,22.1535675 L33.9582606,23.17396 L33.1361689,24.4071302 L32.110903,25.7402236 L31.39216,25.9459479 L30.5630217,26.8711194 L29.6481511,28.1031141 L28.6228853,28.5133871 L28.0074909,28.0008397 L26.982225,26.6653951 C26.982225,26.6653951 26.982225,25.8436735 26.9810506,25.8436735 L26.9810506,25.8436735 C25.9064593,25.5509572 25.8489129,26.3115493 25.3403904,27.0756682 L25.3403904,27.0756682 C25.1348675,27.3836668 24.6956356,27.692841 24.6956356,27.692841 L24.6956356,27.692841 C24.6956356,27.692841 24.3139502,28.2053884 24.006253,28.7191114 L24.006253,28.7191114 C23.6985558,29.2316587 23.2558007,30.3625546 23.2558007,30.3625546 L23.2558007,30.3625546 C23.2558007,30.3625546 22.3655928,31.3900005 22.2622441,31.6968236 L22.2622441,31.6968236 C22.1600698,32.0048222 21.6468497,32.2105465 20.4160609,32.3128209 L20.4160609,32.3128209 L19.0819235,31.6968236 L17.953309,31.9025479 L17.4400889,31.0820018 L16.6191716,30.0545559 L15.4917315,29.13056 L14.9773369,28.2053884 L14.157594,26.5631208 L13.5410252,25.4334005 L12.6191081,24.5094045 L11.3871449,24.3036802 L10.567402,24.3036802 L9.02774163,23.6876829 L9.02774163,23.0716856 C9.02774163,23.0716856 8.10465006,22.5567871 7.79695286,22.266422 L7.79695286,22.266422 C7.61374385,22.092438 7.28490716,22.1559186 6.98543088,22.2193993 L6.98543088,22.2193993 C6.77990795,22.2617197 6.5873036,22.3052157 6.46281543,22.2722998 L6.46281543,22.2722998 C6.15511824,22.1923612 5.23202666,22.8659613 5.23202666,22.8659613 L5.23202666,22.8659613 L4.92432947,22.4545127 C4.61663228,22.0442397 4.20676083,22.4545127 4.20676083,22.4545127 L4.20676083,22.4545127 L3.59019203,23.17396 C3.59019203,23.17396 2.76927472,23.0716856 2.46275194,23.17396 L2.46275194,23.17396 C2.15505475,23.2762343 1.84618315,23.994506 1.84618315,23.994506 L1.84618315,23.994506 L1.33296302,25.4334005 L0.820917315,26.1528478 C0.820917315,26.1528478 0.556673544,26.2433664 0.240755436,26.3456408 L0.240755436,26.3456408 C0.119790509,26.3844345 0.224313601,26.3844345 0,26.4114726 L0,26.4114726 L0,32.9770165 L0,48.4874526 L0.347627361,48.3816516 L0.874940486,47.4529533 L1.71934614,46.9580394 L2.24665926,46.5877357 L3.19676242,45.8447771 C3.19676242,45.8447771 4.54029519,45.1182765 4.56730678,45.1029941 L4.56730678,45.1029941 C5.60314236,44.543424 6.80926837,44.4881724 7.85449929,43.9732738 L7.85449929,43.9732738 C9.07236947,43.3725589 9.47871766,42.6107912 10.9009364,42.4438607 L10.9009364,42.4438607 C11.4282495,42.3827312 12.2726551,42.7330502 12.2726551,42.7330502 L12.2726551,42.7330502 L13.9614664,42.7330502 L15.1217902,42.3192505 L15.1217902,41.5786431 L16.493509,40.8356845 L16.493509,40.2784655 L17.7607047,39.3509429 L18.1823203,38.9183341 C18.6051103,38.4857253 19.8711316,38.6091598 19.8711316,38.6091598 L19.8711316,38.6091598 L20.8212347,38.9806391 L21.6656404,38.7325944 L21.6656404,37.9285063 C21.6656404,37.9285063 22.0884304,37.6205077 22.9316616,37.3724629 L22.9316616,37.3724629 C23.7760673,37.1244182 22.9316616,37.3724629 23.8817648,37.1244182 L23.8817648,37.1244182 C24.831868,36.8775491 24.6204729,36.9398541 25.1477861,36.7541145 L25.1477861,36.7541145 C25.6750992,36.5683748 25.9921917,36.8775491 25.9921917,36.8775491 L25.9921917,36.8775491 L26.8365974,37.3724629 L27.5764799,37.7427667 L28.5254087,38.4234202 L29.1584193,38.7948995 L30.21422,38.9806391 C30.21422,38.9806391 31.7315664,39.5143467 31.7949849,39.5366825 L31.7949849,39.5366825 C33.7374702,40.2196872 34.9741311,41.8607792 37.0739883,42.1958159 L37.0739883,42.1958159 L37.8126964,42.1346864 L38.262498,41.8243366 C38.7228694,41.5739408 39.9524837,41.1836524 40.11103,40.6628761 L40.11103,40.6628761 C40.1345183,40.5852886 40.1415648,40.5029989 40.181495,40.4336404 L40.181495,40.4336404 C40.3541343,40.1326952 41.1022377,39.9316731 41.401714,39.7847272 L41.401714,39.7847272 L42.5620378,38.7948995 L43.5121409,37.8662012 L43.9173147,37.2878221 L44.2496747,36.8164196 L45.0940803,35.8254162 L45.938486,35.0213282 L47.5215997,34.4652848 L47.5215997,33.7846313 L48.3671798,32.6090639 L49.4218061,31.5592822 C49.4218061,31.5592822 50.0548167,30.9397582 50.3719092,30.8163236 L50.3719092,30.8163236 C50.6878273,30.6917134 51.532233,30.5682789 51.532233,30.5682789 L51.532233,30.5682789 C51.532233,30.5682789 52.2709411,30.0745406 52.4823361,29.7030613 L52.4823361,29.7030613 C52.6925567,29.331582 53.4312649,29.7030613 53.4312649,29.7030613 L53.4312649,29.7030613 L54.8041581,29.7030613 L56.0701793,30.3214097 L57.0202825,31.2489324 C57.0202825,31.2489324 58.2769084,32.2305312 58.8077448,32.2998896 L58.8077448,32.2998896 C60.9522298,32.5773235 62.9099825,34.6627801 64.9358515,35.453937 L64.9358515,35.453937 C65.2517696,35.5785471 66.0961752,35.8877213 66.4132677,35.9453241 L66.4132677,35.9453241 C66.7291858,36.0029269 67.2576734,35.9453241 67.2576734,35.9453241 L67.2576734,35.9453241 C67.2576734,35.9453241 67.7849865,36.0123315 68.2066021,35.9500264 L68.2066021,35.9500264 C68.6293922,35.8877213 68.7350897,36.5683748 69.0510078,36.7541145 L69.0510078,36.7541145 C69.3681003,36.9398541 70.212506,37.3101579 70.212506,37.3101579 L70.212506,37.3101579 C70.212506,37.3101579 70.8455166,37.9285063 71.2683066,37.9908114 L71.2683066,37.9908114 C71.6899222,38.0531165 73.061641,38.8572045 73.061641,38.8572045 L73.061641,38.8572045 C73.061641,38.8572045 73.6946516,39.1040737 74.3276623,39.2275083 L74.3276623,39.2275083 C74.9606729,39.3509429 75.3834629,40.0315964 75.3834629,40.0315964 L75.3834629,40.0315964 L76.1691478,40.4536251 L76.6506586,40.7110743 L77.9166799,41.7020776 L77.9166799,42.3827312 L78.655388,42.8799962 L79.7100143,43.4948179 L80.5544199,44.2366009 L81.6102206,45.040689 L82.3489287,45.1652992 L83.2027297,45.7213425 L84.1434375,46.4643011 L85.1992382,46.7111703 C85.1992382,46.7111703 85.8216791,46.4066983 85.8322488,46.4019961 L85.8322488,46.4019961 C86.3760038,46.1351423 86.6672592,45.494458 87.1840025,45.1864594 L87.1840025,45.1864594 C87.9732106,44.7150569 88.1305824,45.2452378 88.6578956,45.8118612 L88.6578956,45.8118612 C89.9849865,47.2448779 91.5692747,48.8989012 93.6421203,49 L93.6421203,49 L95.0138391,48.6285207 L96.1741628,48.7531308 L96.7026504,48.2570414 L97.547056,47.638693 L98.7073798,47.081474 L99.2346929,46.5254306 L100.079099,45.5356029 L100.713284,44.8561249 L101.662212,44.298906 L102.928234,44.1754714 L103.773814,44.1754714 L105.356927,43.8039921 L105.356927,43.4325128 C105.356927,43.4325128 105.467323,43.3972458 105.621171,43.3443453 L105.621171,43.3443453 C105.925345,43.2397198 106.411554,43.0657358 106.622949,42.9481791 L106.622949,42.9481791 C106.809681,42.8447291 107.146739,42.8823473 107.456785,42.921141 L107.456785,42.921141 C107.667005,42.9458279 107.865482,42.972866 107.994668,42.9528813 L107.994668,42.9528813 C108.310586,42.9035075 109.260689,43.3102538 109.260689,43.3102538 L109.260689,43.3102538 L109.577781,43.0622091 C109.893699,42.81534 110.316489,43.0622091 110.316489,43.0622091 L110.316489,43.0622091 L111,43.5289094 L110.996477,31.1407802 L110.593652,29.7465573 L109.773909,28.9248357 L109.259514,28.3088383 L108.337597,27.0756682 L107.00346,25.8436735 C107.00346,25.8436735 105.567148,24.9196776 104.746231,24.8174032 L104.746231,24.8174032 C103.925313,24.7139533 103.207745,23.584233 103.207745,23.584233 L103.207745,23.584233 L102.386827,21.9078739 C102.386827,21.9078739 101.361562,21.5305168 100.847167,21.4282424 L100.847167,21.4282424 C100.335121,21.325968 99.5142041,21.9078739 99.5142041,21.9078739 L99.5142041,21.9078739 L97.8723695,21.9078739 L96.7449294,21.2225181 L96.7449294,19.9905235 L95.4107919,18.7573533 L95.4107919,17.8345329 L94.1788288,16.293364 L93.7689573,15.5739168 C93.3590859,14.8556451 92.1271227,15.0613694 92.1271227,15.0613694 L92.1271227,15.0613694 L91.2052055,15.6773667 L90.3831138,15.2659181 L90.3831138,13.9316492 C90.3831138,13.9316492 89.9732423,13.4179262 89.152325,13.0076532 L89.152325,13.0076532 C88.3314077,12.5973802 89.152325,13.0076532 88.2292335,12.5973802 L88.2292335,12.5973802 C87.3061419,12.1859316 87.5104904,12.2882059 86.9984447,11.9802073 L86.9984447,11.9802073 C86.4852246,11.6722086 86.1775274,12.1859316 86.1775274,12.1859316 L86.1775274,12.1859316 L85.3566101,13.0076532 L84.637867,13.6236505 L83.7147754,14.7533708 L83.0993811,15.3693681 L82.0741152,15.6773667 L80.5344548,16.6013627 L79.4058403,17.5253587 L78.6084114,18.8608032 L77.4563085,19.7847992 L76.5343914,20.7087952 L75.4046024,21.0179694 L74.6870338,20.9145195 L74.2489764,20.4007965 L73.1485478,19.3745262 L72.5073163,18.8608032 L72.413363,18.0390816 L71.1978416,17.0116357 L70.0704015,15.3693681 L69.14731,13.8281992 L68.4285669,12.0824816 L67.6076496,10.440214 L66.7879067,9.10476944 L65.2482463,8.18077348 L65.2482463,7.05105321 L64.427329,5.09961134 L63.4020632,3.35389377 C63.4020632,3.35389377 62.7854944,2.32644787 62.4777972,2.12189914 L62.4777972,2.12189914 C62.1712744,1.91617485 61.3491827,1.71162612 61.3491827,1.71162612 L61.3491827,1.71162612 C61.3491827,1.71162612 60.631614,0.888728948 60.4272655,0.273907202 L60.4272655,0.273907202 C60.3579749,0.0681829087 60.2323123,0 60.09608,0 L60.09608,0 C59.8224409,0 59.5029995,0.273907202 59.5029995,0.273907202" id="Fill-10" fill="url(#linearGradient-7)" mask="url(#mask-6)"></path>
            </g>
            <g id="Group-59" transform="translate(4, 5)">
                <path d="M59.0011734,3.66018812 L114.44355,35.1040338 L114.44355,60.329421 C114.429469,60.3305736 114.409522,60.3317262 114.409522,60.3317262 L113.777082,59.9075571 C113.777082,59.9075571 113.354673,59.665504 113.039039,59.9075571 L112.722232,60.1496101 C112.722232,60.1496101 111.774158,59.7519515 111.457351,59.7992095 C111.141718,59.8464675 110.402502,59.6228566 110.086868,59.7957516 C109.770061,59.9686466 108.820814,60.2717893 108.820814,60.2717893 L108.820814,60.6348689 L107.2403,60.9991011 L106.395482,60.9991011 L105.130601,61.1201276 L104.182527,61.666476 L103.548913,62.3326982 L102.705268,63.3032158 L102.17843,63.8495641 L101.019152,64.3947598 L100.175507,65.0010451 L99.6474952,65.4863039 L98.4882167,65.3652773 L97.1177336,65.7295096 C95.0467554,65.6292304 93.4638944,64.0086275 92.1368256,62.6047198 C91.6111608,62.0479977 91.4539308,61.52816 90.6654336,61.990366 C90.1491558,62.2923561 89.8569894,62.9205414 89.3148977,63.1821892 C89.3043375,63.1867998 88.6812839,63.4853319 88.6812839,63.4853319 L87.6276077,63.2432788 L86.6877474,62.5148144 L85.8347155,61.9696186 L85.0966728,61.8474395 L84.0429966,61.0601907 L83.1993517,60.3317262 L82.1445021,59.7300515 L81.4064594,59.2401822 L81.4064594,58.5739599 L80.1404053,57.6034424 L78.8755245,56.9360675 C78.8755245,56.9360675 78.4542887,56.2686927 77.8218483,56.1476661 C77.1882346,56.0266396 76.5557942,55.7834339 76.5557942,55.7834339 C76.5557942,55.7834339 75.1853111,54.9961851 74.7640753,54.9350955 C74.3416662,54.874006 73.7092258,54.2677207 73.7092258,54.2677207 C73.7092258,54.2677207 72.8655808,53.9046411 72.5487739,53.722525 C72.2331404,53.5404088 72.1275381,52.873034 71.7063023,52.9341235 C71.2838932,52.9940605 70.7570551,52.929513 70.7570551,52.929513 C70.7570551,52.929513 70.2290436,52.9871447 69.9134101,52.929513 C69.5966032,52.873034 68.7529583,52.5698913 68.4373247,52.4488648 C66.4132808,51.6719897 64.4572917,49.6272176 62.3147386,49.3551961 C61.7843804,49.2871907 60.5288865,48.3247416 60.5288865,48.3247416 L59.5796392,47.4153137 L58.3147585,46.8090284 L56.9442754,46.8090284 C56.9442754,46.8090284 56.2062327,46.4447962 55.9950281,46.8090284 C55.7838236,47.1732606 55.0457809,47.6573667 55.0457809,47.6573667 C55.0457809,47.6573667 54.2021359,47.7795459 53.8865024,47.9005724 C53.5696955,48.021599 52.9372551,48.6278843 52.9372551,48.6278843 L51.8824056,49.6594914 L51.0387606,50.8109724 L51.0387606,51.4783473 L49.457073,52.0246956 L48.613428,52.8119444 L47.769783,53.7824619 L47.0329137,54.814069 L46.0836664,55.723497 L44.9232146,56.6940145 C44.6251815,56.8380937 43.8777519,57.035194 43.7052682,57.3302682 C43.665374,57.3982736 43.6583338,57.4801106 43.6348667,57.5550318 C43.4764632,58.0656485 42.2479566,58.4483229 41.7879999,58.6949865 L41.3386035,58.9981291 L40.6005608,59.0580661 C38.501422,58.7295655 37.2682219,57.1204889 35.3263131,56.4508088 C35.2641251,56.4289087 33.7469721,55.9056131 33.7469721,55.9056131 L32.6921226,55.723497 L32.0596822,55.3592647 L31.1104349,54.6918898 L30.3723923,54.3288102 L29.5287473,53.8435515 C29.5287473,53.8435515 29.2131138,53.5404088 28.6851023,53.722525 C28.1582642,53.9046411 28.3694688,53.8435515 27.4202215,54.0856046 C26.4709743,54.3288102 27.3146193,54.0856046 26.4709743,54.3288102 C25.6273293,54.5708633 25.2060935,54.874006 25.2060935,54.874006 L25.2060935,55.6624074 L24.3624485,55.9056131 L23.4132013,55.5413808 C23.4132013,55.5413808 22.1483205,55.4203543 21.7259113,55.8445235 L21.3046755,56.2686927 L20.0386214,57.1781206 L20.0386214,57.7244689 L18.6681383,58.4517808 L18.6681383,59.1802452 L17.5088599,59.583667 L15.8215699,59.583667 C15.8215699,59.583667 14.9779249,59.2401822 14.4510868,59.3012718 C13.0301494,59.4649457 12.6241672,60.2118523 11.4073941,60.8008481 C10.3642782,61.3057017 9.15806535,61.3598754 8.12433626,61.9085291 C8.09617565,61.9235133 6.75385319,62.6358409 6.75385319,62.6358409 L5.80460593,63.3643053 L5.27776783,63.7273849 L4.43412286,64.2126437 L3.90611141,65.1232243 L3.55762385,65.2281139 L3.55762385,35.1074917 L59.0011734,3.66018812 Z M117.841597,33.5940837 C117.735994,33.3658623 117.595191,33.1295724 117.459082,32.9520668 C117.314758,32.7561191 117.130541,32.5947504 116.912296,32.4702659 L60.0935704,0.246087282 C59.8800191,0.122755483 59.6453473,0.0466816624 59.398942,0.019018455 C59.1771772,-0.00633948501 58.816956,-0.00633948501 58.6022314,0.019018455 C58.3534793,0.0466816624 58.1199809,0.122755483 57.911123,0.243782015 L1.08418352,32.4748765 C0.868285504,32.5970556 0.677028021,32.7664928 0.533878249,32.9624405 C0.388381759,33.1583882 0.249925422,33.3946781 0.156056719,33.6067627 C0.0528011455,33.8338315 0,34.0735793 0,34.3213955 L0,99.6803334 C0,99.9281496 0.0528011455,100.167897 0.156056719,100.394966 C0.264005728,100.631256 0.403635424,100.866393 0.547958555,101.055425 C0.692281686,101.24561 0.87180558,101.403521 1.08535688,101.5257 L57.9064296,133.751031 C58.1199809,133.875516 58.3616928,133.953895 58.5998847,133.979253 C58.7054869,133.989626 58.8392498,134 59.0011734,134 C59.1560567,134 59.2945131,133.989626 59.3919018,133.979253 C59.6406539,133.952742 59.876499,133.877821 60.088877,133.753336 L116.91347,101.526852 C117.130541,101.403521 117.314758,101.240999 117.455562,101.050815 C117.595191,100.867546 117.735994,100.631256 117.843943,100.398424 C117.946025,100.174813 118,99.926997 118,99.6803334 L118,34.3179376 C118,34.0678161 117.947199,33.8257631 117.841597,33.5940837 L117.841597,33.5940837 Z" id="Fill-13" fill="#1E2C39"></path>
                <polygon id="Fill-15" fill="#FEFEFE" points="12.0954517 77.5627923 12.0954517 82.7796121 14.5149176 82.7796121 14.5149176 77.5627923 16.6246167 77.5627923 16.6246167 90.0711725 14.5149176 90.0711725 14.5149176 84.6388102 12.0954517 84.6388102 12.0954517 90.0711725 9.98575264 90.0711725 9.98575264 77.5627923"></polygon>
                <path d="M23.462365,88.391209 C24.1534733,88.391209 24.6263369,88.1410875 24.6263369,87.2477964 L24.6263369,80.3861684 C24.6263369,79.4917247 24.1534733,79.2427558 23.462365,79.2427558 C22.7712567,79.2427558 22.2983931,79.4917247 22.2983931,80.3861684 L22.2983931,87.2477964 C22.2983931,88.1410875 22.7712567,88.391209 23.462365,88.391209 M23.3896168,77.4181368 L23.5351133,77.4181368 C25.4641151,77.4181368 26.7372094,78.1696539 26.7372094,80.063431 L26.7372094,87.5693812 C26.7372094,89.4631583 25.4641151,90.2135228 23.5351133,90.2135228 L23.3896168,90.2135228 C21.4617883,90.2135228 20.188694,89.4631583 20.188694,87.5693812 L20.188694,80.063431 C20.188694,78.1512118 21.4617883,77.4181368 23.3896168,77.4181368" id="Fill-17" fill="#FEFEFE"></path>
                <path d="M33.6657757,84.4774415 L32.4102818,84.4774415 L32.4102818,88.2834378 L33.6657757,88.2834378 C34.2665354,88.2834378 34.647877,87.9802951 34.647877,87.3186834 L34.647877,85.4421959 C34.647877,84.7817368 34.2665354,84.4774415 33.6657757,84.4774415 L33.6657757,84.4774415 Z M32.4102818,82.7254384 L33.5930275,82.7254384 C34.1937872,82.7254384 34.5751288,82.4234484 34.5751288,81.7618366 L34.5751288,80.3141288 C34.5751288,79.6525171 34.1937872,79.3493744 33.5930275,79.3493744 L32.4102818,79.3493744 L32.4102818,82.7254384 Z M35.2662371,83.5668609 C36.3762345,83.7443665 36.7587495,84.5846364 36.7587495,85.5505434 L36.7587495,87.6045366 C36.7587495,89.1767288 35.5220293,90.0711725 33.5930275,90.0711725 L30.3005827,90.0711725 L30.3005827,77.5627923 L33.6294016,77.5627923 C35.5572301,77.5627923 36.6860012,78.4549307 36.6860012,80.0282757 L36.6860012,81.6004679 C36.6860012,82.493759 36.2847125,83.4412239 35.2662371,83.5668609 L35.2662371,83.5668609 Z" id="Fill-19" fill="#FEFEFE"></path>
                <path d="M43.8140385,85.5681787 L42.9234592,80.0101793 L42.0317065,85.5681787 L43.8140385,85.5681787 Z M44.0874311,87.2832976 L41.7594873,87.2832976 L41.3042241,90.0703657 L39.2672732,90.0703657 L41.6315912,77.5631381 L44.2869021,77.5631381 L46.6887676,90.0703657 L44.541521,90.0703657 L44.0874311,87.2832976 Z" id="Fill-21" fill="#FEFEFE"></path>
                <path d="M55.8179683,87.5694965 C55.8179683,89.4990052 54.544874,90.2136381 52.6158722,90.2136381 L52.579498,90.2136381 C50.6516696,90.2136381 49.3785753,89.5162947 49.3785753,87.5694965 L49.3785753,80.0635462 C49.3785753,78.2055008 50.6516696,77.418252 52.579498,77.418252 L52.6158722,77.418252 C54.544874,77.418252 55.8179683,78.2055008 55.8179683,80.0635462 L55.8179683,82.351524 L53.7082692,82.351524 L53.7082692,80.3862837 C53.7082692,79.5102821 53.2717797,79.2417185 52.5982718,79.2417185 C51.9259372,79.2417185 51.4894477,79.5102821 51.4894477,80.3862837 L51.4894477,87.2479117 C51.4894477,88.1227606 51.9259372,88.3913243 52.5982718,88.3913243 C53.2717797,88.3913243 53.7082692,88.1227606 53.7082692,87.2479117 L53.7082692,84.9783761 L55.8179683,84.9783761 L55.8179683,87.5694965 Z" id="Fill-23" fill="#FEFEFE"></path>
                <polygon id="Fill-25" fill="#FEFEFE" points="64.1105642 90.0707115 62.3646063 84.6383492 61.4188791 86.4606629 61.4188791 90.0707115 59.3080067 90.0707115 59.3080067 77.5623312 61.4188791 77.5623312 61.4188791 83.1906413 63.8195712 77.5623312 66.0395661 77.5623312 63.6013265 82.2627712 66.2578108 90.0707115"></polygon>
                <path d="M79.8610286,87.5694965 C79.8610286,89.4990052 78.5879343,90.2136381 76.6589324,90.2136381 L76.6237317,90.2136381 C74.6947298,90.2136381 73.4216355,89.5162947 73.4216355,87.5694965 L73.4216355,80.0635462 C73.4216355,78.2055008 74.6947298,77.418252 76.6237317,77.418252 L76.6589324,77.418252 C78.5879343,77.418252 79.8610286,78.2055008 79.8610286,80.0635462 L79.8610286,82.351524 L77.7513295,82.351524 L77.7513295,80.3862837 C77.7513295,79.5102821 77.31484,79.2417185 76.6413321,79.2417185 C75.9678241,79.2417185 75.5313346,79.5102821 75.5313346,80.3862837 L75.5313346,87.2479117 C75.5313346,88.1227606 75.9678241,88.3913243 76.6413321,88.3913243 C77.31484,88.3913243 77.7513295,88.1227606 77.7513295,87.2479117 L77.7513295,84.9783761 L79.8610286,84.9783761 L79.8610286,87.5694965 Z" id="Fill-27" fill="#FEFEFE"></path>
                <polygon id="Fill-29" fill="#FEFEFE" points="88.7178927 90.0707115 83.352123 90.0707115 83.352123 77.5623312 85.4618221 77.5623312 85.4618221 88.2126661 88.7178927 88.2126661"></polygon>
                <path d="M97.9569198,87.5694965 C97.9569198,89.4990052 96.7201997,90.2136381 94.7923712,90.2136381 L94.7184496,90.2136381 C92.7906211,90.2136381 91.5539009,89.5162947 91.5539009,87.5694965 L91.5539009,77.5623312 L93.6636,77.5623312 L93.6636,87.2479117 C93.6636,88.1412028 94.0648887,88.3913243 94.7548237,88.3913243 C95.445932,88.3913243 95.8472207,88.1412028 95.8472207,87.2479117 L95.8472207,77.5623312 L97.9569198,77.5623312 L97.9569198,87.5694965 Z" id="Fill-31" fill="#FEFEFE"></path>
                <path d="M104.921508,84.4774415 L103.667188,84.4774415 L103.667188,88.2834378 L104.921508,88.2834378 C105.522268,88.2834378 105.90361,87.9802951 105.90361,87.3186834 L105.90361,85.4421959 C105.90361,84.7817368 105.522268,84.4774415 104.921508,84.4774415 L104.921508,84.4774415 Z M103.667188,82.7254384 L104.84876,82.7254384 C105.44952,82.7254384 105.830861,82.4234484 105.830861,81.7618366 L105.830861,80.3141288 C105.830861,79.6525171 105.44952,79.3493744 104.84876,79.3493744 L103.667188,79.3493744 L103.667188,82.7254384 Z M106.52197,83.5668609 C107.631967,83.7443665 108.014482,84.5846364 108.014482,85.5505434 L108.014482,87.6045366 C108.014482,89.1767288 106.777762,90.0711725 104.84876,90.0711725 L101.556315,90.0711725 L101.556315,77.5627923 L104.885134,77.5627923 C106.812963,77.5627923 107.941734,78.4549307 107.941734,80.0282757 L107.941734,81.6004679 C107.941734,82.493759 107.540445,83.4412239 106.52197,83.5668609 L106.52197,83.5668609 Z" id="Fill-33" fill="#FEFEFE"></path>
                <path d="M23.3598135,97.0484098 L24.6106139,97.0484098 L24.6106139,99.8089673 C24.6106139,100.586995 24.5718931,101.695829 22.7543603,101.695829 C21.6842571,101.695829 20.6927689,101.423807 20.6927689,100.138621 L20.6927689,99.85392 L21.942396,99.85392 L21.942396,100.169742 C21.942396,100.593911 22.200535,100.871696 22.6182507,100.871696 C23.2706382,100.871696 23.3598135,100.492479 23.3598135,99.9599623 L23.3598135,97.0484098 Z" id="Fill-35" fill="#89D6F7"></path>
                <path d="M29.0330032,98.023192 L28.3113875,99.8155373 L29.7546189,99.8155373 L29.0330032,98.023192 Z M30.0890261,100.638518 L27.9758069,100.638518 L27.6015055,101.568693 L26.2544896,101.568693 L28.2785335,97.048064 L29.7874729,97.048064 L31.8103435,101.568693 L30.4633276,101.568693 L30.0890261,100.638518 Z" id="Fill-37" fill="#89D6F7"></path>
                <path d="M37.3427301,98.7582265 C37.2265676,98.1058359 36.6797824,97.7819458 36.0285683,97.7819458 C34.8423026,97.7819458 34.5900304,98.693679 34.5900304,99.3091854 C34.5900304,99.9235391 34.8423026,100.835272 36.0285683,100.835272 C36.6340214,100.835272 37.2207008,100.550572 37.3427301,99.8347863 L38.702653,99.8347863 C38.5477696,101.151094 37.4459857,101.69629 35.9839807,101.69629 C34.307251,101.69629 33.2629616,100.98742 33.2629616,99.3091854 C33.2629616,97.6297982 34.307251,96.9209285 35.9839807,96.9209285 C37.0916314,96.9209285 38.503182,97.1998658 38.689746,98.7582265 L37.3427301,98.7582265 Z" id="Fill-39" fill="#89D6F7"></path>
                <polygon id="Fill-41" fill="#89D6F7" points="43.989925 97.0484098 45.6725215 97.0484098 43.558129 98.8649604 45.8332717 101.569039 44.1448084 101.569039 42.5783744 99.6130196 41.850892 100.227373 41.850892 101.569039 40.5989181 101.569039 40.5989181 97.0484098 41.850892 97.0484098 41.850892 98.9929027"></polygon>
                <path d="M50.6186982,98.3586084 C50.5424298,97.7696126 49.967484,97.7073704 49.4664598,97.7073704 C48.950182,97.7073704 48.6146014,97.9344392 48.6146014,98.2387345 C48.6146014,98.4784823 48.8211125,98.6121878 49.1426128,98.6629037 L50.7090468,98.9107199 C51.546825,99.0432728 52.1851322,99.3521786 52.1851322,100.176312 C52.1851322,101.018887 51.6054929,101.696635 49.7938269,101.696635 C48.6732693,101.696635 47.2159577,101.556014 47.2030507,100.145191 L48.6075612,100.145191 C48.6216415,100.765307 49.2529085,100.872502 49.7938269,100.872502 C50.3805063,100.872502 50.7806217,100.701913 50.7806217,100.308865 C50.7806217,99.9607692 50.4966689,99.8662532 50.0003381,99.7901794 L48.8598333,99.6195896 C48.0596026,99.4985631 47.2863592,99.2645785 47.2863592,98.3390136 C47.2863592,97.3327645 48.1253107,96.9212743 49.5685421,96.9212743 C50.5154426,96.9212743 51.9211264,97.0803377 52.0056083,98.3586084 L50.6186982,98.3586084 Z" id="Fill-43" fill="#89D6F7"></path>
                <path d="M56.6596186,100.834927 C57.7942565,100.834927 58.1943719,100.010793 58.1943719,99.3088396 C58.1943719,98.6057331 57.7942565,97.7827526 56.6596186,97.7827526 C55.5249806,97.7827526 55.1248653,98.6057331 55.1248653,99.3088396 C55.1248653,100.010793 55.5249806,100.834927 56.6596186,100.834927 M56.6596186,96.9205827 C59.1342322,96.9205827 59.5214406,98.3648326 59.5214406,99.3088396 C59.5214406,100.251694 59.1342322,101.695944 56.6596186,101.695944 C54.1850049,101.695944 53.7977965,100.251694 53.7977965,99.3088396 C53.7977965,98.3648326 54.1850049,96.9205827 56.6596186,96.9205827" id="Fill-45" fill="#89D6F7"></path>
                <polygon id="Fill-47" fill="#89D6F7" points="65.3188891 97.0484098 66.5297954 97.0484098 66.5297954 101.569039 65.1698725 101.569039 62.6624048 98.4165859 62.6506712 98.4165859 62.6506712 101.569039 61.4374182 101.569039 61.4374182 97.0484098 62.888863 97.0484098 65.3059821 100.200863 65.3188891 100.200863"></polygon>
                <polygon id="Fill-49" fill="#89D6F7" points="72.3830957 97.0484098 73.6338961 97.0484098 73.6338961 98.7450865 76.2246724 98.7450865 76.2246724 97.0484098 77.4754728 97.0484098 77.4754728 101.569039 76.2246724 101.569039 76.2246724 99.6061038 73.6338961 99.6061038 73.6338961 101.569039 72.3830957 101.569039"></polygon>
                <path d="M82.2535071,100.834927 C83.3881451,100.834927 83.7882604,100.010793 83.7882604,99.3088396 C83.7882604,98.6057331 83.3881451,97.7827526 82.2535071,97.7827526 C81.1188692,97.7827526 80.7187539,98.6057331 80.7187539,99.3088396 C80.7187539,100.010793 81.1188692,100.834927 82.2535071,100.834927 M82.2535071,96.9205827 C84.7281208,96.9205827 85.1153292,98.3648326 85.1153292,99.3088396 C85.1153292,100.251694 84.7281208,101.695944 82.2535071,101.695944 C79.7788935,101.695944 79.3916851,100.251694 79.3916851,99.3088396 C79.3916851,98.3648326 79.7788935,96.9205827 82.2535071,96.9205827" id="Fill-51" fill="#89D6F7"></path>
                <polygon id="Fill-53" fill="#89D6F7" points="87.0317761 97.0484098 88.2825766 97.0484098 88.2825766 100.669985 91.0869041 100.669985 91.0869041 101.569039 87.0317761 101.569039"></polygon>
                <polygon id="Fill-55" fill="#89D6F7" points="92.9834039 97.0484098 97.2814172 97.0484098 97.2814172 97.9094271 94.233031 97.9094271 94.233031 98.8465182 97.1265338 98.8465182 97.1265338 99.6694986 94.233031 99.6694986 94.233031 100.708022 97.3084044 100.708022 97.3084044 101.569039 92.9834039 101.569039"></polygon>
                <path d="M59.8684028,112.439988 C59.8684028,111.968561 59.4800211,111.587039 59.0001173,111.587039 C58.5202136,111.587039 58.1318318,111.968561 58.1318318,112.439988 C58.1318318,112.911415 58.5202136,113.292937 59.0001173,113.292937 C59.4800211,113.292937 59.8684028,112.911415 59.8684028,112.439988 M52.7555019,112.439988 C52.7555019,111.968561 52.3671201,111.587039 51.8872164,111.587039 C51.4073126,111.587039 51.0189309,111.968561 51.0189309,112.439988 C51.0189309,112.911415 51.4073126,113.292937 51.8872164,113.292937 C52.3682935,113.292937 52.7555019,112.912568 52.7555019,112.439988 M66.9813038,112.439988 C66.9813038,111.968561 66.5929221,111.587039 66.1130183,111.587039 C65.6319412,111.587039 65.2447328,111.967408 65.2447328,112.439988 C65.2447328,112.911415 65.6331146,113.292937 66.1130183,113.292937 C66.5929221,113.292937 66.9813038,112.911415 66.9813038,112.439988" id="Fill-57" fill="#FEFEFE"></path>
            </g>
        </g>
    </g>
</svg>